<?xml version="1.0" encoding="UTF-8"?>
<svg fill="#FFFFFF" width="100pt" height="100pt" version="1.1" viewBox="0 0 100 100" xmlns="http://www.w3.org/2000/svg">
 <g>
  <path d="m32.438 69.145c-1.6055-1.1797-2.9414-2.4922-4.0586-3.8945l-10.91 10.91s-0.80078 0.87109-1.9062 1.2812c-1.1133 0.41406-2.543 0.37109-4.2227 0-2.9844-0.66016-4.5781 0.95312-5.1289 1.9688-0.57813 1.0547-1.0078 3.2109 0.42969 5.0352 1.4375 1.8203 3.3672 1.6445 4.8438 1.4609 1.0703-0.13672 1.8711 0.74219 1.8711 0.74219s0.875 0.80078 0.74219 1.8672c-0.18359 1.4766-0.36328 3.4062 1.4609 4.8438 1.8203 1.4375 3.9805 1.0078 5.0352 0.43359 1.0117-0.55469 2.625-2.1484 1.9688-5.1328-0.375-1.6797-0.41797-3.1055-0.003906-4.2188 0.41406-1.1094 1.2812-1.9062 1.2812-1.9062l10.949-10.949c-0.65234-0.91406-1.418-1.7578-2.3516-2.4414z"/>
  <path d="m72.387 27.672c0.95312 1.3008 1.6953 2.6445 2.3125 4.0078l7.8359-7.832s0.80078-0.87109 1.9062-1.2852c1.1133-0.41797 2.5391-0.37109 4.2188-0.003906 2.9844 0.66016 4.5742-0.95312 5.1328-1.9648 0.57422-1.0547 1.0078-3.2109-0.43359-5.0352-1.4375-1.8203-3.3633-1.6445-4.8438-1.4609-1.0664 0.13281-1.8672-0.74219-1.8672-0.74219s-0.87891-0.80469-0.74219-1.8711c0.18359-1.4727 0.35938-3.4023-1.4648-4.8398-1.8203-1.4375-3.9766-1.0117-5.0312-0.43359-1.0156 0.55469-2.6289 2.1484-1.9688 5.1328 0.37109 1.6758 0.41406 3.1055 0.003906 4.2227-0.41406 1.1055-1.2852 1.9023-1.2852 1.9023l-6.7852 6.7852c1.0391 0.98438 2.0508 2.1094 3.0117 3.418z"/>
  <path d="m93.789 79.406c-0.55469-1.0117-2.1484-2.6289-5.1328-1.9688-1.6797 0.375-3.1055 0.41797-4.2188 0.003906-1.1055-0.41406-1.9023-1.2812-1.9023-1.2812l-10.91-10.91c-1.1172 1.4062-2.457 2.7188-4.0625 3.9023-0.93359 0.68359-1.6953 1.5234-2.3516 2.4375l10.945 10.949s0.86719 0.79688 1.2812 1.9023c0.41406 1.1133 0.37109 2.5391 0.003906 4.2188-0.66016 2.9844 0.95312 4.5781 1.9688 5.1328 1.0547 0.57422 3.2109 1.0078 5.0312-0.43359 1.8203-1.4375 1.6445-3.3672 1.4609-4.8438-0.13672-1.0703 0.74219-1.8711 0.74219-1.8711s0.80469-0.87891 1.8672-0.74609c1.4805 0.18359 3.4102 0.36328 4.8477-1.4609 1.4375-1.8203 1.0078-3.9805 0.42969-5.0312z"/>
  <path d="m30.633 24.254l-6.7852-6.7852s-0.87109-0.80078-1.2812-1.9062c-0.41406-1.1133-0.37109-2.543 0-4.2227 0.66016-2.9844-0.95312-4.5781-1.9648-5.1328-1.0586-0.57422-3.2109-1.0078-5.0352 0.43359-1.8203 1.4375-1.6445 3.3672-1.4609 4.8438 0.13281 1.0664-0.74219 1.8672-0.74219 1.8672s-0.80078 0.87891-1.8672 0.74609c-1.4727-0.18359-3.4023-0.35938-4.8438 1.4648-1.4375 1.8203-1.0078 3.9766-0.42969 5.0312 0.55078 1.0156 2.1445 2.6289 5.1289 1.9688 1.6797-0.37109 3.1055-0.41406 4.2227-0.003906 1.1055 0.41406 1.9023 1.2812 1.9023 1.2812l7.8359 7.8359c0.61328-1.3633 1.3555-2.707 2.3086-4.0078 0.95312-1.3047 1.9609-2.4297 3.0117-3.4141z"/>
  <path d="m70.789 28.848c-5.418-7.3789-12.285-8.7031-20.785-8.7109-8.5039 0.007812-15.371 1.332-20.789 8.7109-3.6562 4.9805-4.3906 10.77-4.3594 16.508 0.042969 8.4609 1.4141 16.793 8.7578 22.191v0.003906c2.6367 1.9336 4.5312 4.8789 5.0664 8.3633v1.4961c0 1.3555 1.1016 2.457 2.4531 2.457 1.3555 0 2.457-1.1016 2.457-2.457v-1.4961c0-0.27734 0.22266-0.5 0.5-0.5 0.27344 0 0.49609 0.22266 0.49609 0.5v1.4961c0 1.3555 1.0977 2.457 2.457 2.457 1.3555 0 2.4531-1.1016 2.4531-2.457v-1.4961h0.003906c0-0.27734 0.22656-0.5 0.5-0.5s0.49609 0.22266 0.49609 0.5c0 0.007813-0.003906 0.015626-0.003906 0.023438v1.4766c0 1.3555 1.1016 2.457 2.4531 2.457 1.3555 0 2.457-1.1016 2.457-2.457v-1.4961c0-0.27734 0.22266-0.5 0.49609-0.5 0.27344 0 0.5 0.22266 0.5 0.5v0.003906 1.4922c0 1.3555 1.0977 2.457 2.4531 2.457 1.3555 0 2.4531-1.1016 2.4531-2.457v-1.4961h0.007812c0.53516-3.4883 2.4297-6.4297 5.0664-8.3633v-0.003907c7.3438-5.3984 8.7188-13.73 8.7617-22.188 0.035156-5.7422-0.69531-11.535-4.3516-16.516zm-31.383 31.781c-4.5625 0-7.2852-2.9219-7.2852-7.8203 0-2.3633 1.918-4.2773 4.2773-4.2773h6.0156c2.3672 0 4.2773 1.9141 4.2773 4.2773 0 4.8984-2.7227 7.8203-7.2852 7.8203zm12.73 7.0508c-0.14062 0.074218-0.29688 0.11328-0.44922 0.11328-0.18359 0-0.36719-0.054688-0.52344-0.16016-0.35547-0.23437-0.74609-0.41406-1.1602-0.53516-0.41406 0.12109-0.80078 0.30078-1.1562 0.53516-0.16016 0.10547-0.34375 0.16016-0.52344 0.16016-0.15625 0-0.3125-0.039063-0.45312-0.11328-0.30859-0.16797-0.50391-0.49219-0.5-0.84375 0.003906-1.375 0.58203-3.7617 2.1406-4.7148 0.15234-0.089844 0.32422-0.13672 0.49609-0.13672 0.17188 0 0.34375 0.046875 0.49609 0.13672 1.5586 0.94922 2.1328 3.3398 2.1406 4.7148-0.003906 0.35156-0.19922 0.67578-0.50781 0.84375zm8.457-7.0508c-4.5625 0-7.2852-2.9219-7.2852-7.8203 0-2.3633 1.918-4.2773 4.2812-4.2773h6.0117c2.3594 0 4.2773 1.9141 4.2773 4.2773 0 4.8984-2.7227 7.8203-7.2852 7.8203z"/>
 </g>
</svg>
