<?xml version="1.0" encoding="UTF-8"?>
<svg width="100pt" height="100pt" version="1.1" viewBox="0 0 100 100" xmlns="http://www.w3.org/2000/svg">
 <g>
  <path d="m32.668 66.43c-0.31641-0.089844-0.625-0.21094-0.9375-0.33203-0.70312-0.26953-1.4961-0.57812-2.3711-0.57812-0.76953 0-1.4648 0.26562-2.0781 0.49609-0.51953 0.19531-1.0117 0.38281-1.457 0.38281-0.34766 0-0.75391-0.17578-1.1797-0.36328-0.54688-0.24219-1.1719-0.51172-1.8867-0.51172-0.95312 0-1.8125 0.28516-2.6445 0.5625-0.36719 0.12109-0.73438 0.24609-1.1055 0.33984-0.47266 0.11719-0.75781 0.59375-0.64453 1.0664 0.11719 0.47266 0.59375 0.75781 1.0664 0.64453 0.41406-0.10156 0.82422-0.23828 1.2383-0.375 0.73047-0.24219 1.4219-0.47656 2.0859-0.47656 0.34766 0 0.75 0.17578 1.1797 0.36328 0.55078 0.23828 1.1719 0.51172 1.8867 0.51172 0.76953 0 1.4648-0.26562 2.0781-0.49609 0.51953-0.19531 1.0117-0.38281 1.457-0.38281 0.54297 0 1.125 0.22266 1.7344 0.46094 0.35938 0.14062 0.72266 0.27734 1.0859 0.38281 0.082031 0.023438 0.16406 0.035156 0.24219 0.035156 0.38281 0 0.73438-0.25391 0.84766-0.64062 0.14062-0.46875-0.12891-0.95703-0.59766-1.0898z"/>
  <path d="m61.934 76.824c-0.31641-0.089844-0.62891-0.21094-0.9375-0.33203-0.70312-0.26953-1.4961-0.57813-2.3711-0.57813-0.76953 0-1.4648 0.26172-2.0781 0.49219-0.51953 0.19531-1.0117 0.38281-1.457 0.38281-0.34766 0-0.75391-0.17578-1.1797-0.36328-0.55078-0.23828-1.1719-0.51172-1.8867-0.51172-0.95313 0-1.8125 0.28516-2.6445 0.5625-0.36719 0.12109-0.73438 0.24609-1.1016 0.33984-0.47266 0.11719-0.76172 0.59375-0.64453 1.0664 0.11719 0.47266 0.59375 0.75781 1.0664 0.64453 0.41406-0.10547 0.82812-0.23828 1.2383-0.37891 0.73047-0.24219 1.4219-0.47266 2.0859-0.47266 0.34766 0 0.75391 0.17578 1.1797 0.36328 0.55078 0.23828 1.1719 0.51172 1.8867 0.51172 0.76953 0 1.4648-0.26172 2.0781-0.49219 0.51953-0.19531 1.0117-0.38281 1.457-0.38281 0.54297 0 1.125 0.22266 1.7344 0.46094 0.35938 0.14062 0.72266 0.27734 1.0898 0.38281 0.078125 0.023438 0.16406 0.035157 0.24219 0.035157 0.38281 0 0.73438-0.25391 0.84766-0.64063 0.13281-0.46875-0.13672-0.95703-0.60547-1.0898z"/>
  <path d="m83.855 85.57c-0.31641-0.089843-0.625-0.21094-0.9375-0.33203-0.69922-0.26953-1.4961-0.57812-2.3711-0.57812-0.76953 0-1.4648 0.26172-2.0781 0.49609-0.51953 0.19531-1.0117 0.38281-1.457 0.38281-0.34766 0-0.75391-0.17969-1.1797-0.36328-0.54688-0.23828-1.168-0.51172-1.8867-0.51172-0.95312 0-1.8125 0.28516-2.6445 0.5625-0.36719 0.12109-0.73438 0.24609-1.1055 0.33594-0.47266 0.11719-0.75781 0.59375-0.64062 1.0664 0.11719 0.47266 0.59375 0.76172 1.0664 0.64453 0.41406-0.10547 0.82812-0.23828 1.2383-0.37891 0.73047-0.24219 1.4219-0.47266 2.0859-0.47266 0.34766 0 0.75391 0.17969 1.1797 0.36328 0.55078 0.23828 1.1719 0.51172 1.8867 0.51172 0.76953 0 1.4648-0.26172 2.0781-0.49219 0.51953-0.19531 1.0117-0.38281 1.457-0.38281 0.54688 0 1.125 0.22266 1.7344 0.46094 0.35938 0.14063 0.72266 0.27734 1.0898 0.38281 0.078125 0.023437 0.16016 0.035156 0.24219 0.035156 0.38281 0 0.73438-0.25391 0.84766-0.64062 0.13281-0.46875-0.13672-0.95312-0.60547-1.0898z"/>
  <path d="m33.906 57.184c0.41406-0.10156 0.82812-0.23828 1.2383-0.375 0.73047-0.24219 1.4219-0.47656 2.0859-0.47656 0.34766 0 0.75391 0.17578 1.1797 0.36328 0.54688 0.24219 1.1719 0.51172 1.8867 0.51172 0.76562 0 1.4648-0.26562 2.0781-0.49609 0.51953-0.19531 1.0117-0.38281 1.457-0.38281 0.54688 0 1.125 0.22266 1.7344 0.46094 0.35938 0.14063 0.72266 0.27734 1.0898 0.38281 0.082031 0.023437 0.16016 0.035156 0.24219 0.035156 0.38281 0 0.73437-0.25391 0.84766-0.63672 0.13281-0.46875-0.13672-0.95312-0.60547-1.0898-0.31641-0.089844-0.625-0.21094-0.9375-0.33203-0.69922-0.27344-1.4961-0.57813-2.3711-0.57813-0.76562 0-1.4648 0.26563-2.0781 0.49609-0.51953 0.19531-1.0117 0.38281-1.457 0.38281-0.34766 0-0.75391-0.17578-1.1797-0.36328-0.54688-0.23828-1.1719-0.51172-1.8867-0.51172-0.95312 0-1.8125 0.28516-2.6445 0.56641-0.36719 0.12109-0.73438 0.24219-1.1055 0.33594-0.47266 0.11719-0.75781 0.59375-0.64453 1.0664 0.12109 0.47266 0.59766 0.75781 1.0703 0.64062z"/>
  <path d="m47.992 73.324c0.38281 0 0.73437-0.25391 0.84766-0.64062 0.13281-0.46875-0.13672-0.95312-0.60547-1.0898-0.31641-0.089844-0.625-0.21094-0.9375-0.33203-0.69922-0.26953-1.4961-0.57812-2.3711-0.57812-0.76953 0-1.4648 0.26562-2.0781 0.49219-0.51953 0.19531-1.0117 0.38281-1.457 0.38281-0.34766 0-0.75391-0.17578-1.1797-0.36328-0.55078-0.23828-1.1719-0.51172-1.8867-0.51172-0.95312 0-1.8125 0.28516-2.6445 0.5625-0.36719 0.12109-0.73438 0.24609-1.1055 0.33594-0.47266 0.11719-0.75781 0.59375-0.64062 1.0664 0.11719 0.47266 0.59375 0.75781 1.0664 0.64062 0.41406-0.10156 0.82422-0.23828 1.2383-0.375 0.73047-0.24219 1.4219-0.47266 2.0859-0.47266 0.34766 0 0.75391 0.17578 1.1797 0.36328 0.55078 0.23828 1.1719 0.51172 1.8867 0.51172 0.76562 0 1.4648-0.26562 2.0781-0.49219 0.51953-0.19531 1.0117-0.38281 1.457-0.38281 0.54297 0 1.125 0.22266 1.7344 0.46094 0.35938 0.14062 0.72266 0.27734 1.0898 0.38281 0.082031 0.027344 0.16406 0.039063 0.24219 0.039063z"/>
  <path d="m93.773 33.562l-19.363-17.605c-0.33594-0.30469-0.85156-0.30469-1.1875 0.003907l-15.371 14.09-5.9336-3.3438c-0.023438-0.015625-0.054688-0.015625-0.078125-0.027343-0.23047-0.16797-0.53516-0.21875-0.8125-0.12109l-4.3086 1.5156-9.9805-17.73c-0.14453-0.25781-0.41406-0.42578-0.71094-0.44531-0.29297-0.019532-0.58203 0.11328-0.76172 0.35156l-17.359 23.184-3.7227-0.95312c-0.29297-0.074219-0.60156 0.003906-0.82031 0.21094l-7.1523 6.7109c-0.35547 0.33203-0.37109 0.89062-0.039063 1.2422 0.33594 0.35547 0.89453 0.375 1.25 0.039063l5.9062-5.543 2.6211 2.3672-2.8867 2.1992c-0.24219 0.1875-0.375 0.48438-0.34375 0.79297 0.03125 0.30469 0.22266 0.57422 0.5 0.70312l10.168 4.8047c0.12109 0.058594 0.25 0.085938 0.375 0.085938 0.32812 0 0.64453-0.1875 0.79688-0.50391 0.20703-0.4375 0.019531-0.96484-0.42188-1.1719l-8.8555-4.1875 2.5781-1.9648c0.20703-0.16016 0.33594-0.40234 0.34766-0.66406 0.011719-0.26172-0.09375-0.51562-0.28906-0.69141l-2.5664-2.3203 2.6953 0.69141c0.34766 0.089844 0.71094-0.039062 0.92188-0.32422l16.184-21.609 0.86328 4-4.7969 5.4688c-0.32031 0.36328-0.28516 0.91797 0.074219 1.2383l8.9414 7.9531c0.16797 0.14844 0.375 0.22266 0.58594 0.22266 0.24219 0 0.48438-0.10156 0.65625-0.29688 0.32422-0.36328 0.28906-0.92188-0.070312-1.2422l-8.2852-7.3711 4.5117-5.1445c0.18359-0.21094 0.25781-0.49219 0.19922-0.76562l-0.54297-2.5195 8.2695 14.688c0.21094 0.37109 0.65625 0.53906 1.0586 0.39844l4.3828-1.543 4.0977 5.7188-1.6484 6.1523c-0.11328 0.42969 0.11719 0.85937 0.51953 1.0273 0.57812 0.36719 1.8203 0.67969 4.2852 1.3008 1.3906 0.35156 3.4258 0.85938 4.7461 1.293-4.7188 1.4531-11.391 2.5391-18.414 3.6836-17.082 2.7773-34.742 5.6484-33.68 14.867 1.3086 11.32 16.324 20.27 30.848 27.531 0.125 0.0625 0.26172 0.09375 0.39453 0.09375 0.32422 0 0.63281-0.17969 0.78906-0.48437 0.21875-0.43359 0.042969-0.96484-0.39453-1.1797-13.289-6.6406-28.684-15.613-29.898-26.164-0.87109-7.543 16.707-10.402 32.211-12.922 7.7734-1.2656 15.117-2.457 20.012-4.1875 0.87109-0.30859 0.97656-0.875 0.96484-1.1836-0.050781-1.125-1.4492-1.6133-6.8945-2.9844 12.961-0.68359 28.348-0.12891 29.816 1.6133-0.70312 1.3359-8.875 3.4336-14.867 4.9766-12.395 3.1836-25.215 6.4766-24.707 11.793 0.89062 9.3594 24.473 13.473 42.133 15.754 0.47656 0.0625 0.92188-0.27734 0.98438-0.76172 0.0625-0.48047-0.27734-0.92578-0.76172-0.98438-26.371-3.4023-40.031-8.1719-40.605-14.172-0.36328-3.8164 13.934-7.4922 23.395-9.9258 10.953-2.8125 16.219-4.2734 16.219-6.7148 0-0.31641-0.10156-0.78906-0.58594-1.2383-3.3203-3.0742-26.023-2.4766-34.465-1.8867l1.4023-5.2383c0.066407-0.25391 0.019531-0.52734-0.13672-0.73828l-2.4219-3.3789 3.2031 1.8047c0.33203 0.1875 0.74609 0.14062 1.0273-0.11719l13.973-12.805-0.90234 4.5039c-0.074219 0.37891 0.10547 0.76562 0.44531 0.94922l4.4688 2.4062-10.719 7.543c-0.39844 0.28125-0.49219 0.82812-0.21484 1.2266 0.17187 0.24219 0.44531 0.375 0.72266 0.375 0.17578 0 0.35156-0.050781 0.50781-0.16016l11.883-8.3633c0.25-0.17578 0.39062-0.46875 0.37109-0.77344-0.019531-0.30469-0.19141-0.57812-0.46094-0.72266l-5.1445-2.7695 0.96484-4.8086 18.129 16.48c0.17188 0.15234 0.38281 0.23047 0.59375 0.23047 0.23828 0 0.47656-0.097656 0.65234-0.28906 0.32422-0.35938 0.30078-0.91797-0.0625-1.2422z"/>
 </g>
</svg>
