<?xml version="1.0" encoding="utf-8"?>
<svg width="100pt" height="100pt" version="1.1" viewBox="0 0 100 100" xmlns="http://www.w3.org/2000/svg">
  <defs>
    <linearGradient id="gradient-0" gradientUnits="userSpaceOnUse" x1="56.406" y1="45.615" x2="56.406" y2="58.027">
      <stop offset="0" style="stop-color: rgba(0, 0, 0, 1)"/>
      <stop offset="1" style="stop-color: rgba(0, 0, 0, 1)"/>
    </linearGradient>
    <linearGradient id="gradient-1" gradientUnits="userSpaceOnUse" x1="60.042" y1="50.948" x2="60.042" y2="60.766">
      <stop offset="0" style="stop-color: rgba(0, 0, 0, 1)"/>
      <stop offset="1" style="stop-color: rgba(0, 0, 0, 1)"/>
    </linearGradient>
    <linearGradient id="gradient-2" gradientUnits="userSpaceOnUse" x1="48.258" y1="38.993" x2="48.258" y2="45.773">
      <stop offset="0" style="stop-color: rgba(0, 0, 0, 1)"/>
      <stop offset="1" style="stop-color: rgba(0, 0, 0, 1)"/>
    </linearGradient>
    <linearGradient id="gradient-3" gradientUnits="userSpaceOnUse" x1="52.44" y1="41.208" x2="52.44" y2="54.37">
      <stop offset="0" style="stop-color: rgba(0, 0, 0, 1)"/>
      <stop offset="1" style="stop-color: rgba(0, 0, 0, 1)"/>
    </linearGradient>
    <linearGradient id="gradient-4" gradientUnits="userSpaceOnUse" x1="48.785" y1="44.818" x2="48.785" y2="82.899" gradientTransform="matrix(0.999998, -0.00197, 0.00197, 1, -0.088196, 0.096105)">
      <stop offset="0" style="stop-color: rgba(0, 0, 0, 1)"/>
      <stop offset="1" style="stop-color: rgba(0, 0, 0, 1)"/>
    </linearGradient>
    <linearGradient id="gradient-5" gradientUnits="userSpaceOnUse" x1="49.428" y1="8.027" x2="49.428" y2="95.708" gradientTransform="matrix(1, -0.000856, 0.000856, 0.999144, -0.00685, 0.049194)">
      <stop offset="0" style="stop-color: rgb(101, 158, 255);"/>
      <stop offset="1" style="stop-color: rgb(57, 107, 195);"/>
    </linearGradient>
  </defs>
  <g transform="matrix(1, 0, 0, 1, 0, -0.150038)">
    <path d="m53.414 58.027c0.51953-0.019532 1.0195-0.22656 1.5039-0.55469l0.83203-1.1797 1.3555-1.9219 2.0273-2.875 1.6875-2.7578 0.097657-0.14062c0.46094-0.71875 1.0742-2.0938-0.015625-2.6289-0.90234-0.38281-1.5898-0.58984-2.2422 0.097656l-7.3594 10.445c0.20703 0.78125 1.3281 1.543 2.1133 1.5156z" style="fill: url(#gradient-0);"/>
    <path d="m61.492 51.262l-5.4336 7.707c-0.027344 0.09375-0.058594 0.1875-0.078125 0.26953-0.23828 1.2383 1.4805 1.6445 2.25 1.5 1.3281-0.25 2.4688-1.3945 3.4609-2.6094 0.71094-0.87109 3.1602-4.1172 2.2266-6.0391-0.51953-1.0742-1.7812-1.4805-2.4258-0.82812z" style="fill: url(#gradient-1);"/>
    <path d="m50.074 39.043c-2.7656-0.5-4.0586 2.8359-5.2891 4.8359l4.1758 1.8945c1.4375-2.0156 4.7734-5.4922 1.1133-6.7305z" style="fill: url(#gradient-2);"/>
    <path d="m50.637 46.477c0.35938 0.17969 0.61719 0.31641 0.85547 0.44531l0.6875 0.3125 0.94141 0.42578-0.27734 0.6875c-0.90625 2.2422-2.875 4.7461-5.75 3.8984-0.4375 1.3828 0.82812 1.4531 1.7305 1.8516 0.6875 0.14453 1.2305 0.79688 2.4219-0.65234l0.86328-1.1055s0-0.003906 0.003906-0.003906l2.0195-2.8594c0.003907-0.003906 0.003907-0.007812 0.007813-0.007812l2.5586-3.625c0.33594-0.57422 0.60938-0.94922 0.8125-1.5117 0.59766-0.99609 0.54297-2.0977-0.79688-2.7852-0.86719-0.43359-2.0625-0.57812-2.8438 0.34766l-2.8594 4.0586z" style="fill: url(#gradient-3);"/>
    <path d="m57.805 62.133c-1.9141-0.15234-2.9688-0.39062-3.0547-2.6562-0.89844 0.12109-2.9297 0.33594-3.6836-1.2188 0.21875 1.1445 1.0938 7.6562-0.023437 7.7188-1.3906-0.042968-1.2266-3.9102-1.2422-4.793-0.082031-4.2344-1.6367-6.6562-6.0664-7.9297 0.47266-0.71094 0.55859-0.88672 1.875-2.5625 2.375 1 4.3945-0.089844 5.3945-2.082l-0.92578-0.42188-2.1445-0.97266-3.2031-1.4531-1.8359-0.83203c-0.21484-0.039063-0.43359-0.074219-0.65625-0.10938-0.94922-0.13672-3.9727 4.5234-4.7305 5.625-1.207 1.7539-2.6641 4.2188-2.7656 5.4883-0.17578 2.2227 2.1836 4.7109 3.375 6.7461 1.1914 2.0352 3.1836 4.5352 3.5586 6.5586 0.67578 3.6406 0.023438 10.73 0.023438 10.73 8.793 6.5938 14.602 0 14.602 0-0.28516-2.8281-0.61328-6.3125 0.050781-8.2188 0.57422-1.6445 1.3477-2.3828 3.1914-3.3945 1.2305-0.61328 1.8906-2.3906 2.3086-3.9883 0.47266-1.8008 0.47656-1.9102 0.98438-5.0742-1.3008 1.4258-2.7109 3.0234-5.0312 2.8398z" style="fill: url(#gradient-4);"/>
    <path d="m50.062 8.2891l-0.27344-0.26172h-0.73437l-0.26172 0.26172c-0.74219 0.74219-7.7578 11.883-13.816 22.895-6.0391 10.984-13.559 24.652-13.559 36.516 0 7.4805 2.9141 14.516 8.2031 19.805 5.2891 5.2891 12.324 8.2031 19.805 8.2031 15.445 0 28.012-12.566 28.012-28.012 0-11.863-7.5195-25.531-13.559-36.516-6.0586-11.012-13.074-22.148-13.816-22.891zm-0.63281 85.641c-7.0078 0-13.594-2.7305-18.551-7.6836-4.9531-4.9531-7.6836-11.543-7.6836-18.547 0-11.406 7.3945-24.855 13.34-35.656 5.3945-9.8086 11.004-18.785 12.891-21.609 1.8984 2.8438 7.5039 11.809 12.895 21.609 5.9414 10.805 13.34 24.25 13.34 35.656 0 14.465-11.77 26.23-26.23 26.23z" style="fill: url(#gradient-5); stroke-width: 6px;"/>
  </g>
</svg>