<?xml version="1.0" encoding="UTF-8"?>
<svg width="100pt" height="100pt" version="1.1" viewBox="0 0 100 100" xmlns="http://www.w3.org/2000/svg">
 <path d="m95.398 45c-2.5977-23.102-22.098-40.5-45.398-40.5-23.199 0-42.699 17.398-45.301 40.398l-1.8008-0.19922c2.8008-23.898 23-42 47.102-42 24.199 0 44.5 18.102 47.102 42.102z"/>
 <path d="m15.301 39.102l-1.1992-0.5c0.30078-0.89844 8.3984-21.5 15.5-22.699 7.1016-1.1016 19.602 14.602 20.102 15.301l-1 0.80078c-3.5-4.3984-13.602-15.602-18.898-14.801-5.3047 0.89844-12.305 16.098-14.504 21.898z"/>
 <path d="m74.898 35.5s-1.1992-2.1992-2.8008-4.5c-2.6992-3.8984-4.1016-4.8008-4.6016-4.8984-1.6992-0.5-6.6016 3.5-9.3984 6.6016l-0.89844-0.89844c0.10156-0.10156 1.8984-2 4-3.8008 3.1016-2.6016 5.3008-3.6016 6.6992-3.1016 3 0.89844 7.6992 9.1016 8.1992 10z"/>
 <path d="m61.699 27.5c-2.3984-4-7.1016-10.301-9.1992-10.301-2.1016 0-6.1992 5.1016-8.1992 8.3008l-1.1016-0.69922c0.60156-0.89844 5.8008-8.8984 9.3008-8.8984s9.6016 9.8008 10.301 10.898z"/>
 <path d="m96.301 44.898" fill="none" stroke="#000" stroke-miterlimit="10" stroke-width="1.8031"/>
 <path d="m3.8008 44.801" fill="none" stroke="#000" stroke-miterlimit="10" stroke-width="1.8031"/>
 <path d="m56.801 35.102c0.69922 5.3008-6.1016 5.1016-6.1016 8.3008 0 4.1016 9.8984 4 9.8984 9.8984 0 8.1016-13.301 9.3984-13.301 15.699 0 9.3008 30.602 11.801 37.5 12.199 7.3984-8.1992 11.801-19.102 11.801-31 0-1.8008-0.10156-3.5-0.30078-5.1992l-0.10156-1.1016s-11.898-11.102-41.602-12.199c0.80469 0.90234 2.1055 2.3008 2.207 3.4023z"/>
 <path d="m85.102 82.102h-0.39844c-3.6016-0.19922-13-1-21.5-2.8008-11.203-2.5-16.902-6-16.902-10.402 0-3.3984 3.3008-5.5 6.5-7.5 3.3984-2.1016 6.8984-4.3984 6.8984-8.1992 0-2.6992-2.5-3.8984-5.1016-5.1992-2.3008-1.1016-4.8008-2.3008-4.8008-4.6992 0-1.8008 1.6016-2.8008 3-3.6992 2.1016-1.3008 3.3984-2.1992 3.1016-4.5 0-0.19922-0.30078-1.1016-2-2.8984l-1.6016-1.6016 2.3008 0.10156c29.699 1 41.699 12 42.199 12.398l0.19922 0.19922 0.19922 1.3984c0.19922 1.8008 0.30078 3.6016 0.30078 5.3008 0 11.699-4.3008 22.898-12.102 31.602zm-28.5-49.402c0.69922 0.89844 1 1.6016 1.1016 2.3008 0.5 3.6016-2.1016 5.1992-3.8984 6.3008-1.3008 0.80078-2.1992 1.3008-2.1992 2.1016 0 1.1992 1.3984 2 3.6992 3.1016 2.6992 1.3008 6.1016 3 6.1016 6.8008 0 4.8008-4.1016 7.3984-7.6992 9.6992-3 1.8984-5.6016 3.6016-5.6016 6 0 3.3984 5.3008 6.3984 15.398 8.6016 8.1016 1.6992 16.898 2.5 20.801 2.6992 7.3008-8.3008 11.301-19 11.301-30.102 0-1.6992-0.10156-3.3984-0.30078-5.1016l-0.10156-0.69922c-1.7031-1.6016-13.305-10.402-38.602-11.703z"/>
 <path d="m29.898 70.898c2-14.301 18.5-11 18.5-16.301 0-6.3008-8.6992-6.3008-8.6992-10.398 0-4.1016 11.102-6.5 11.102-8.8984 0-1.5-1.1016-2.8008-1.8984-3.6992-30.102 0.30078-45 13.199-45 13.199-0.19922 1.8008-0.30078 3.6016-0.30078 5.3984 0 25.398 20.398 46.102 45.602 46.5-7.9023-2.3984-21.504-10-19.305-25.801z"/>
 <path d="m55.699 97.699l-6.6016-0.10156c-12.5-0.19922-24.199-5.3008-32.898-14.199-8.8008-8.8984-13.598-20.699-13.598-33.297 0-1.8008 0.10156-3.6992 0.30078-5.5v-0.39844l0.30078-0.19922c0.19922-0.10156 3.8984-3.3008 11.5-6.6016 6.8984-3 18.5-6.6016 34.102-6.8008h0.39844l0.30078 0.30078c1 1 2.1992 2.6016 2.1992 4.3008 0 1.6016-2.1016 2.6992-5 4.1016-2.6016 1.3008-6.1016 3.1016-6.1016 4.8008 0 1.1992 1.1992 2 3.1992 3.1992 2.5 1.3984 5.5 3.1992 5.5 7.1992 0 2.6992-2.8008 3.6016-6.1016 4.6016-5 1.6016-11.199 3.5-12.398 11.801-0.89844 6.6992 1 12.398 5.6016 17.199 4.6992 4.6992 10.602 6.8984 13 7.6016zm-51.098-52.5c-0.19922 1.6016-0.30078 3.3008-0.30078 4.8984 0 12 4.6016 23.398 13.102 32 7 7.1992 16 11.699 25.801 13.199-2.6016-1.3008-5.5-3.1992-8.1016-5.8008-5.1016-5.1953-7.1016-11.496-6.1016-18.695 1.3008-9.3984 8.6992-11.699 13.602-13.301 3-0.89844 4.8984-1.6016 4.8984-2.8984 0-3-2.1992-4.3008-4.6016-5.6016-2-1.1992-4.1016-2.3984-4.1016-4.6992 0-2.8984 3.8008-4.8008 7.1016-6.3984 1.3984-0.69922 3.8008-1.8984 4-2.5 0-0.80078-0.5-1.8008-1.3984-2.8008-27.102 0.29688-41.801 11-43.898 12.598z"/>
</svg>
