<?xml version="1.0" encoding="UTF-8"?>
<svg width="100pt" height="100pt" version="1.1" viewBox="0 0 100 100" xmlns="http://www.w3.org/2000/svg">
 <path d="m78.699 58.398l-8.5977 8.6016-16.801-16.801 32-32 5.1016 5.1016c0.89844 0.89844 2.3984 0.89844 3.3984 0 1-0.89844 0.89844-2.3984 0-3.3984l-13.801-13.801c-0.89844-0.89844-2.3984-0.89844-3.3984 0-1 0.89844-0.89844 2.3984 0 3.3984l5.1016 5.1016-32 32-32-32 5.1016-5.1016c0.89844-0.89844 0.89844-2.3984 0-3.3984-0.89844-1-2.3984-0.89844-3.3984 0l-13.707 13.898c-0.89844 0.89844-0.89844 2.3984 0 3.3984 0.89844 0.89844 2.3984 0.89844 3.3984 0l5.1016-5.1016 32 32-16.699 16.703-8.6016-8.6016-11.598 11.5c-5.6992 5.6992-5.6992 15.102 0 20.801s15.102 5.6992 20.801 0l11.5-11.5-8.6016-8.6992 16.801-16.801 16.801 16.801-8.6016 8.6016 11.5 11.5c5.6992 5.6992 15.102 5.6992 20.801 0 5.6992-5.6992 5.6992-15.102 0-20.801z"/>
</svg>
