<?xml version="1.0" encoding="UTF-8"?>
<svg width="100pt" height="100pt" version="1.1" viewBox="0 0 100 100" xmlns="http://www.w3.org/2000/svg">
 <g fill-rule="evenodd">
  <path d="m73.113 12.344c3.8086-0.67188 7.5156 2.3125 8.2812 6.6641 0.76953 4.3516-1.6953 8.4219-5.5039 9.0938-3.8047 0.67188-7.5156-2.3125-8.2812-6.6641s1.6992-8.4219 5.5039-9.0938"/>
  <path d="m76.738 30.07c5.6016-0.28906 10.984 7.6055 13.141 11.355 2.1523 3.7461 3.9805 8.2461 5.0547 13.285 0.34375 1.6172-0.69141 3.207-2.3086 3.5508s-3.207-0.69141-3.5508-2.3086c-0.9375-4.4219-2.5195-8.3281-4.3711-11.551-0.13281-0.23047-0.26953-0.46094-0.40234-0.68359 0.09375 1.1484 0.16016 2.3086 0.21094 3.4844 0.46484 11.121-0.09375 12.645 1.418 23.5 1.1484 8.2344 1.4102 17.629 1.4102 20.797 0 1.9336-1.5664 3.5-3.5 3.5s-3.5-1.5664-3.5-3.5c0-3.0547-0.24609-12.082-1.3281-19.844-0.25781-1.8477-0.55859-3.6289-0.90234-5.25-0.42969 1.7617-0.81641 3.7695-1.1562 5.8633-1.3945 8.5508-1.9688 18.188-1.9688 19.23 0 1.9336-1.5664 3.5-3.5 3.5s-3.5-1.5664-3.5-3.5c0-1.1094 0.60156-11.324 2.0742-20.352 1.9102-11.695 3.0391-10.504 2.5-23.477-0.078125-1.8789-0.21484-3.6992-0.42188-5.4375-3.8867 4.2227-8.3203 8.2109-13.453 10.844-0.027344 1.0078-0.5625 1.9805-1.4961 2.5195l-2.5977 1.5c0.82422 1.4297 0.33203 3.2734-1.0977 4.0977l-7.793 4.5c-1.4297 0.82422-3.2734 0.32813-4.0977-1.0977l-0.75-1.3008-12.16-1.0625 0.11719-1.8008 8.293-3.6328c-0.82422-1.4297-0.33203-3.2734 1.0977-4.0977l7.793-4.5c1.4297-0.82422 3.2734-0.33203 4.0977 1.0977l2.5977-1.5c0.97656-0.5625 2.1445-0.51172 3.0508 0.03125 8.6836-4.6367 16.379-17.523 21-17.762zm-20.465 24.035c-1.3242 0.23047-2.6875-0.46094-3.2539-1.7461-0.45312-1.0273-0.28125-2.1758 0.34766-3.0117-0.27734 0.027344-0.55078 0.10938-0.80859 0.25781l-1.7305 1 3 5.1953 1.7305-1c0.30859-0.17578 0.54688-0.41797 0.71484-0.69531z"/>
  <path d="m26.008 61.785c-3.4648-0.11719-6.0156 4.3516-3.7539 4.9883 2.6758 0.75 1.3867-3.5156 3.7539-4.9883z"/>
  <path d="m18.27 69.914c-3.0117 2.3984-4.707 6.293-1.9336 6.5859 2.3672 0.25 1.5469-3.668 1.9336-6.5859z"/>
  <path d="m25 78.094c-0.51953 3.1562-4.5586 0.82812-1.7969-5.1562 0.74219 1.4727 2.0156 3.8242 1.7969 5.1562z"/>
  <path d="m13.145 94.25c1.9258-7.2539-5.832-8.6094-8.1328-8.2305-0.21094 6.2188 3.2891 8.8086 7.4492 8.9805-1.1133-2.8594-2.8125-5.1367-4.3633-6.75 1.8125 1.3477 3.7539 3.3203 5.0469 6z"/>
  <path d="m14.734 93.996c-2.8203-9.6719 7.4648-11.434 10.543-10.914 0.49609 8.2852-4.0703 11.711-9.6055 11.918 1.3828-3.8047 3.5664-6.8242 5.5703-8.9648-2.3672 1.7852-4.8789 4.3984-6.5078 7.9609z"/>
  <path d="m39.133 94.25c1.9258-7.2539-5.832-8.6094-8.1328-8.2305-0.20703 6.2188 3.2891 8.8086 7.4531 8.9805-1.1133-2.8594-2.8125-5.1367-4.3633-6.75 1.8125 1.3477 3.75 3.3203 5.043 6z"/>
  <path d="m40.41 93.996c-2.8203-9.6719 7.4648-11.434 10.543-10.914 0.49219 8.2812-4.0703 11.711-9.6094 11.918 1.3828-3.8047 3.5664-6.8242 5.5703-8.9648-2.3594 1.7852-4.875 4.3984-6.5039 7.9609z"/>
 </g>
</svg>
